<svg xmlns="http://www.w3.org/2000/svg" width="22" height="20" viewBox="0 0 22 20"><path fill="#b3b3b3" d="M21.26 3.145c1.214 2.24.8 4.71-.174 6.957l-.008.015h-5.137l-1.788-5.021a.587.587 0 0 0-1.09-.053L9.92 11.788 7.888 8.084a.586.586 0 0 0-1.034.002L5.747 10.12H.92l-.007-.014C-.06 7.857-.475 5.388.74 3.148 1.762 1.262 3.7-.012 5.832-.012c2.229 0 4.166 1.262 5.168 3.12 1-1.858 2.94-3.12 5.168-3.12 2.131 0 4.07 1.274 5.093 3.157zm-6.154 8.792h4.908c-2.446 3.415-7.192 6.933-8.607 7.944a.7.7 0 0 1-.813 0c-1.415-1.008-6.162-4.527-8.607-7.944h4.46c.216 0 .414-.12.518-.31l.41-.75 2.114 3.855a.588.588 0 0 0 1.053-.036l2.909-6.243 1.097 3.086a.594.594 0 0 0 .558.398z"/></svg>