<svg id="tips" xmlns="http://www.w3.org/2000/svg" width="26" height="26" viewBox="0 0 26 26">
  <defs>
    <style>
      .cls-1, .cls-2 {
        fill: #4080ff;
      }

      .cls-1 {
        fill-opacity: 0;
        stroke: #4080ff;
        stroke-linejoin: round;
        stroke-width: 1px;
      }

      .cls-2 {
        fill-rule: evenodd;
      }
    </style>
  </defs>
  <circle class="cls-1" cx="13" cy="13" r="9.625"/>
  <path id="Forma_1" data-name="Forma 1" class="cls-2" d="M197.936,2489.17h-2.172a1.089,1.089,0,0,1,0-1.08h2.172A1.094,1.094,0,0,1,197.936,2489.17Zm2.354-5.88c0,1.87-1.725,2.08-1.937,4.13,0,0.18-.227.12-0.417,0.12h-2.172c-0.191,0-.419.06-0.419-0.12h0c-0.211-2.05-1.936-2.26-1.936-4.13A3.441,3.441,0,1,1,200.29,2483.29Zm-2.9,6.43h-1.086c-0.191,0-.734-0.55-0.543-0.55h2.172C198.126,2489.17,197.583,2489.72,197.393,2489.72Z" transform="translate(-183.5 -2471.5)"/>
</svg>
