<svg xmlns="http://www.w3.org/2000/svg" width="19" height="20" viewBox="0 0 19 20"><g><g><path fill="#ccc" d="M6.853 11.009v1.546a.443.443 0 0 1-.443.443H4.864a.443.443 0 0 1-.442-.443v-1.546c0-.244.198-.443.442-.443H6.41c.245 0 .443.199.443.443zm3.862 1.546a.443.443 0 0 1-.442.443H8.727a.443.443 0 0 1-.442-.443v-1.546c0-.244.198-.443.442-.443h1.546c.244 0 .442.199.442.443zm3.863 0a.443.443 0 0 1-.443.443H12.59a.443.443 0 0 1-.443-.443v-1.546c0-.244.198-.443.443-.443h1.545c.245 0 .443.199.443.443zm-7.725 2.318v1.546a.443.443 0 0 1-.443.443H4.864a.443.443 0 0 1-.442-.443v-1.546c0-.244.198-.442.442-.442H6.41c.245 0 .443.198.443.442zm3.862 1.546a.443.443 0 0 1-.442.443H8.727a.443.443 0 0 1-.442-.443v-1.546c0-.244.198-.442.442-.442h1.546c.244 0 .442.198.442.442zm3.863-1.546v1.546a.443.443 0 0 1-.442.443H12.59a.443.443 0 0 1-.443-.443v-1.546c0-.244.198-.442.443-.442h1.546c.244 0 .442.198.442.442zM19.04 4.162V18a1.76 1.76 0 0 1-1.749 1.76H1.709A1.758 1.758 0 0 1-.04 18V4.162c0-.949.766-1.72 1.698-1.749v2.362c0 1.067.866 1.927 1.932 1.927h1.22c1.066 0 1.943-.86 1.943-1.927v-2.37h5.494v2.37c0 1.067.877 1.927 1.944 1.927h1.218c1.067 0 1.933-.86 1.933-1.927V2.413c.932.029 1.698.8 1.698 1.749zm-2.264 12.976V9.99a.756.756 0 0 0-.757-.756H2.947a.756.756 0 0 0-.756.756v7.148c0 .418.339.757.756.757H16.02a.756.756 0 0 0 .757-.757zM2.923 4.774V.903c0-.366.297-.663.663-.663h1.206c.366 0 .662.297.662.663v3.87a.662.662 0 0 1-.662.663H3.586a.662.662 0 0 1-.663-.662zm10.59 0V.903c0-.366.296-.663.662-.663h1.206c.366 0 .662.297.662.663v3.87a.662.662 0 0 1-.662.663h-1.206a.662.662 0 0 1-.663-.662z"/></g></g></svg>