<svg xmlns="http://www.w3.org/2000/svg" width="21" height="20" viewBox="0 0 21 20"><g><g><path fill="#b3b3b3" d="M10.437 19.949c1.142.002 2.073-.964 2.08-2.158l-.12-4.234 8.55-4.524.012-2.192a.435.435 0 0 0-.437-.435L12.261 8.75l-.154-4.31c.001-.372-.06-.721-.168-1.03l2.803-1.62.009-1.367a.327.327 0 0 0-.33-.328L10.73 1.28l-.442-.003L6.61.076a.333.333 0 0 0-.333.327L6.27 1.77l2.836 1.665c-.106.302-.168.64-.17 1l-.2 4.325L.441 6.355A.439.439 0 0 0 0 6.787l-.011 2.191 8.557 4.6-.163 4.203c-.007 1.193.914 2.165 2.055 2.168z"/></g></g></svg>