<svg xmlns="http://www.w3.org/2000/svg" width="22" height="32" viewBox="0 0 22 32"><g><g><path fill="#fff" d="M2.728 23.67a18.747 18.747 0 0 0 3.12 4.136l.02.021v2.688c0 .355.288.643.642.643h11.546a.642.642 0 0 0 .641-.643v-2.762a15.953 15.953 0 0 0 2.566-8.677v-5.003a2.57 2.57 0 0 0-2.566-2.569c-.527 0-1.019.16-1.427.436a2.57 2.57 0 0 0-2.421-1.72c-.528 0-1.02.16-1.428.435a2.57 2.57 0 0 0-2.42-1.72c-.459 0-.898.12-1.284.344V3.411C9.717 1.992 8.57.842 7.151.842a2.57 2.57 0 0 0-2.565 2.57v9.247l-1.753 1.17a4.744 4.744 0 0 0-1.974 5.007"/></g><g><path fill="#b3b3b3" d="M.859 18.836a4.744 4.744 0 0 1 1.974-5.007l1.753-1.17V3.41A2.57 2.57 0 0 1 7.15.842a2.567 2.567 0 0 1 2.566 2.57v5.867A2.544 2.544 0 0 1 11 8.935c1.118 0 2.07.72 2.421 1.72.409-.275.9-.436 1.428-.436 1.118 0 2.07.72 2.421 1.72.408-.274.9-.435 1.427-.435a2.57 2.57 0 0 1 2.566 2.57v5.002c0 3.098-.901 6.109-2.566 8.677v2.762a.642.642 0 0 1-.641.643H6.51a.642.642 0 0 1-.641-.643v-2.688l-.02-.021a18.747 18.747 0 0 1-4.99-8.97zm2.686-3.938a3.454 3.454 0 0 0-1.438 3.644 17.53 17.53 0 0 0 1.742 4.503c1.376 2.473 2.979 3.907 3.114 4.062.12.12.188.284.188.454v2.312h10.263v-2.312c0-.127.038-.25.108-.356a14.666 14.666 0 0 0 2.458-8.13v-5.002c0-.708-.575-1.284-1.283-1.284-.707 0-1.283.576-1.283 1.284V16a.642.642 0 1 1-1.282 0v-3.211c0-.709-.576-1.285-1.283-1.285-.708 0-1.283.576-1.283 1.285V16a.642.642 0 1 1-1.283 0v-4.496a1.284 1.284 0 0 0-2.566 0V16a.642.642 0 1 1-1.283 0V3.411a1.284 1.284 0 1 0-2.565 0V18.57a.642.642 0 1 1-1.283 0v-4.366z"/></g></g></svg>