<svg xmlns="http://www.w3.org/2000/svg" width="25" height="25" viewBox="0 0 25 25">
  <defs>
    <style>
      .cls-1 {
        fill: #d9d9d9;
        fill-rule: evenodd;
      }
    </style>
  </defs>
  <path id="flag" class="cls-1" d="M615.5,2403a12.5,12.5,0,1,1-12.5,12.5A12.5,12.5,0,0,1,615.5,2403Zm3.674,7.03a0.316,0.316,0,0,0-.322.06l-0.931.94a3.009,3.009,0,0,1-2.81.69,3.043,3.043,0,0,0-2.985.84l-0.1-.41a0.557,0.557,0,0,0-.681-0.39,0.549,0.549,0,0,0-.4.67l2.41,9.34a0.559,0.559,0,0,0,1.083-.28l-1.017-3.94a3.043,3.043,0,0,1,2.985-.84,3.009,3.009,0,0,0,2.81-.69l1.059-1.05a0.6,0.6,0,0,0,.193-0.6l-1.062-4.11A0.323,0.323,0,0,0,619.174,2410.03Z" transform="translate(-603 -2403)"/>
</svg>
