<svg xmlns="http://www.w3.org/2000/svg" width="9" height="10.376" viewBox="0 0 9 10.376">
  <defs>
    <style>
      .cls-1 {
        fill: gray;
        fill-rule: evenodd;
      }
    </style>
  </defs>
  <path id="Forma_1" data-name="Forma 1" class="cls-1" d="M33.9,215.13a0.324,0.324,0,0,0-.237-0.1,0.894,0.894,0,0,0-.286.112c-0.146.074-.3,0.156-0.463,0.249a3.378,3.378,0,0,1-.579.248,1.942,1.942,0,0,1-.618.112,1,1,0,0,1-.463-0.1,9.3,9.3,0,0,0-1.152-.466,3.473,3.473,0,0,0-1.052-.154,4.965,4.965,0,0,0-2.214.636c-0.171.086-.293,0.153-0.372,0.2l-0.078-.581a0.84,0.84,0,1,0-.988.083l1.137,8.4a0.5,0.5,0,0,0,.49.431,0.516,0.516,0,0,0,.068,0,0.5,0.5,0,0,0,.424-0.562l-0.457-3.376a4.979,4.979,0,0,1,2.15-.624,2.471,2.471,0,0,1,.749.116,3.216,3.216,0,0,1,.607.255,3.5,3.5,0,0,0,.57.254,1.93,1.93,0,0,0,.65.117,4.234,4.234,0,0,0,1.94-.615,0.748,0.748,0,0,0,.208-0.146,0.29,0.29,0,0,0,.066-0.2v-4.043A0.328,0.328,0,0,0,33.9,215.13Z" transform="translate(-25 -213.812)"/>
</svg>
