<svg xmlns="http://www.w3.org/2000/svg" width="22.844" height="19.25" viewBox="0 0 22.844 19.25">
  <defs>
    <style>
      .cls-1 {
        fill: #d9d9d9;
        fill-rule: evenodd;
      }
    </style>
  </defs>
  <path id="_" data-name="“" class="cls-1" d="M84.828,2303.51a4.29,4.29,0,0,0-4.44-4.51,2.768,2.768,0,0,0-1.48.37c0.074-3.03,2.294-6.44,5.55-7.18v-3.48c-4.144.45-9.843,4.22-9.843,12.95,0,4.22,2.516,6.3,5.4,6.3A4.6,4.6,0,0,0,84.828,2303.51Zm-12.655,0a4.29,4.29,0,0,0-4.44-4.51,2.768,2.768,0,0,0-1.48.37c0.074-3.03,2.294-6.44,5.55-7.18v-3.48c-4.144.45-9.843,4.22-9.843,12.95,0,4.22,2.516,6.3,5.4,6.3A4.6,4.6,0,0,0,72.173,2303.51Z" transform="translate(-61.969 -2288.72)"/>
</svg>
