<svg xmlns="http://www.w3.org/2000/svg" width="140" height="37" viewBox="0 0 140 37"><g><g><path fill="#4080ff" d="M9.697 31.546l.848-.849 4.667 4.667-.848.848zm-4.243-.849l.849.849-4.667 4.666-.849-.848zm8.91-8.91l.848.849-4.667 4.667-.848-.849zm-12.728 0l4.667 4.667-.849.849-4.667-4.667zM104 15.6v-1.2h6.6v1.2zm-3.6 2.4h1.2v6.6h-1.2zm0-12.6h1.2V12h-1.2zm-9 9H98v1.2h-6.6zm-19.703-3.854l.849-.849 4.666 4.667-.848.848zm-4.243-.849l.849.849-4.667 4.666-.849-.848zm8.91-8.91l.848.849-4.666 4.667-.849-.849zm-12.728 0l4.667 4.667-.849.849-4.667-4.667zM42 12.6v-1.2h6.6v1.2zM38.4 15h1.2v6.6h-1.2zm0-12.6h1.2V9h-1.2zm-9 9H36v1.2h-6.6zm104.297 19.146l.849-.849 4.666 4.667-.848.848zm-4.243-.849l.849.849-4.667 4.666-.849-.848zm8.91-8.91l.848.849-4.666 4.667-.849-.849zm-12.728 0l4.667 4.667-.849.849-4.667-4.667z"/></g></g></svg>