<svg xmlns="http://www.w3.org/2000/svg" width="17" height="16" viewBox="0 0 17 16"><g><g><path fill="#b3b3b3" d="M15.718.467c-.73-.717-1.949-.684-2.722.075l-2.645 2.776L1.958.852.541 2.242a.385.385 0 0 0 0 .552l6.806 3.677-2.673 2.847c-.24.235-.425.497-.555.762L1.28 9.36l-.884.867a.29.29 0 0 0 0 .416L3.521 12.2l.283.278 1.586 3.069a.304.304 0 0 0 .425 0l.883-.867-.748-2.838c.262-.126.52-.304.752-.532l2.91-2.634 3.773 6.727a.403.403 0 0 0 .562 0l1.416-1.39-2.529-8.296 2.808-2.578c.772-.758.806-1.954.076-2.671z"/></g></g></svg>